<?xml version="1.0" standalone="no"?>
<!DOCTYPE svg PUBLIC "-//W3C//DTD SVG 20010904//EN"
 "http://www.w3.org/TR/2001/REC-SVG-20010904/DTD/svg10.dtd">
<svg version="1.0" xmlns="http://www.w3.org/2000/svg"
 width="2000.000000pt" height="2000.000000pt" viewBox="0 0 2000.000000 2000.000000"
 preserveAspectRatio="xMidYMid meet">

<g transform="translate(0.000000,2000.000000) scale(0.100000,-0.100000)"
fill="#000000" stroke="none">
<path d="M9625 19814 c-229 -12 -454 -28 -620 -45 -1595 -162 -3091 -697
-4430 -1584 -2262 -1498 -3815 -3887 -4259 -6550 -414 -2488 126 -5009 1519
-7090 374 -558 730 -991 1220 -1481 283 -283 436 -423 705 -645 1762 -1451
3957 -2239 6240 -2239 1950 0 3842 574 5455 1655 1664 1115 2948 2705 3681
4560 435 1103 659 2230 681 3440 36 2005 -537 3954 -1652 5620 -811 1211
-1871 2220 -3125 2975 -293 176 -759 417 -1070 554 -1064 468 -2138 731 -3325
816 -149 11 -885 21 -1020 14z m1120 -3939 c229 -11 497 -56 751 -126 1119
-307 2033 -1136 2448 -2222 56 -144 137 -412 150 -492 4 -22 10 -45 14 -51 4
-5 45 -18 92 -28 232 -48 534 -177 747 -319 994 -664 1290 -2027 660 -3044
-205 -330 -516 -612 -856 -775 -199 -95 -440 -167 -631 -188 -152 -16 -171
-20 -165 -31 4 -5 -276 -9 -753 -9 l-759 0 -6 -75 c-6 -69 -19 -102 -193 -487
-234 -520 -242 -534 -318 -606 -106 -99 -225 -140 -366 -128 -93 8 -162 40
-229 105 -97 94 -143 198 -144 326 -1 44 5 98 12 120 8 22 77 177 154 345 77
168 146 320 153 338 l14 32 -1614 0 -1613 0 -5 -73 c-4 -68 -15 -95 -203 -512
-109 -242 -213 -463 -230 -490 -43 -69 -127 -142 -205 -179 -59 -28 -76 -31
-182 -34 -107 -4 -121 -2 -170 20 -107 50 -202 161 -239 279 -21 67 -25 182
-8 242 5 20 78 185 161 365 82 180 152 333 155 340 4 9 -87 12 -433 12 -566 0
-724 13 -1021 86 -1033 251 -1831 1056 -2057 2074 -45 202 -59 346 -60 585 0
327 40 581 139 882 129 391 347 751 635 1047 159 163 279 264 455 381 328 218
663 354 1050 425 332 61 821 50 1135 -24 l55 -13 53 90 c630 1074 1762 1759
3002 1816 160 8 194 7 425 -4z m-5665 -8434 c193 -74 322 -292 282 -477 -10
-46 -372 -861 -429 -966 -38 -70 -140 -163 -220 -201 -65 -31 -73 -32 -193
-32 -120 0 -127 1 -178 29 -174 97 -274 309 -232 493 9 37 350 804 415 933 54
107 171 201 294 236 65 19 193 12 261 -15z m4205 -15 c92 -46 174 -126 217
-213 25 -51 32 -81 36 -143 2 -44 0 -99 -7 -124 -17 -69 -414 -939 -453 -993
-45 -63 -139 -138 -208 -165 -46 -19 -75 -22 -175 -23 -106 0 -126 3 -167 23
-101 50 -188 152 -229 268 -24 69 -29 189 -9 249 12 39 343 780 404 904 36 76
121 165 192 203 81 43 148 58 242 54 72 -3 95 -9 157 -40z m4151 30 c226 -60
370 -260 334 -465 -17 -99 -416 -980 -479 -1058 -59 -73 -139 -128 -224 -154
-92 -29 -250 -24 -314 9 -164 86 -275 299 -245 471 15 81 407 953 462 1027 38
51 106 107 167 138 86 43 207 57 299 32z m-6710 -1367 c191 -35 350 -208 362
-395 2 -40 -1 -93 -7 -118 -11 -47 -356 -820 -418 -938 -88 -169 -273 -270
-463 -253 -76 7 -110 19 -165 56 -166 112 -248 322 -193 499 11 36 361 817
405 904 58 114 188 213 316 241 79 17 91 17 163 4z m4251 -21 c189 -70 318
-281 284 -464 -14 -76 -400 -938 -457 -1021 -39 -57 -114 -122 -178 -155 -103
-53 -272 -58 -374 -12 -77 34 -164 126 -208 218 -41 87 -55 200 -35 281 11 42
343 791 413 929 59 118 193 219 323 245 65 13 167 4 232 -21z"/>
<path d="M10386 15000 c-157 -56 -266 -189 -285 -347 -28 -232 114 -435 337
-482 29 -6 88 -11 130 -11 491 -1 1045 -256 1371 -631 216 -248 343 -488 425
-799 44 -164 70 -221 135 -292 121 -132 335 -175 494 -99 154 74 257 220 258
366 1 95 -60 325 -142 535 -337 866 -1086 1513 -1982 1714 -181 41 -307 56
-502 62 -165 4 -185 3 -239 -16z"/>
<path d="M6465 13227 c-160 -54 -267 -179 -297 -347 -36 -209 102 -423 310
-479 23 -7 99 -16 169 -21 155 -11 258 -37 382 -96 193 -91 344 -230 450 -413
83 -144 125 -292 139 -498 8 -114 13 -140 39 -195 56 -118 155 -201 278 -233
207 -53 436 49 531 239 33 67 34 72 34 189 0 344 -115 714 -315 1012 -287 428
-707 712 -1213 821 -144 31 -439 43 -507 21z"/>
<path d="M13911 12094 c-78 -21 -147 -61 -212 -124 -151 -148 -167 -357 -42
-548 48 -72 101 -115 217 -174 125 -65 194 -130 241 -230 30 -63 37 -91 45
-185 15 -164 47 -240 139 -327 231 -215 605 -110 703 198 36 112 12 365 -52
556 -85 255 -264 501 -479 659 -93 68 -280 164 -351 180 -62 14 -145 12 -209
-5z"/>
</g>
</svg>
